<svg xmlns="http://www.w3.org/2000/svg" width="191.394" height="58.44" viewBox="0 0 191.394 58.44"><g data-name="Group 534" fill="#00af50"><path data-name="Path 48" d="M178.962 10.689h-3.193c0-4.138-3.955-7.5-8.817-7.5s-8.817 3.366-8.817 7.5h-3.193C154.942 4.795 160.33 0 166.952 0s12.01 4.795 12.01 10.689"/><path data-name="Path 49" d="M143.592 58.44l-.04-5.688 19.61-.136c.689-.052 9.713-.872 16.008-8.005a31.33 31.33 0 0 0 6.52-14.27V16.112h-36.179v14.75h-5.7V10.424h47.585l-.015 20.375a36.165 36.165 0 0 1-7.795 17.415l-.081.1a30.929 30.929 0 0 1-20.1 9.99h-.122z"/><path data-name="Path 50" d="M150.548 37.727a3.54 3.54 0 1 1-3.534-3.345 3.444 3.444 0 0 1 3.534 3.345"/><path data-name="Path 51" d="M150.548 45.85a3.54 3.54 0 1 1-3.534-3.345 3.444 3.444 0 0 1 3.534 3.345"/><path data-name="Path 52" d="M6.068 55.04a17.8 17.8 0 0 1-4.427-.49l.4-3.4a11.219 11.219 0 0 0 4.171.789c1.731 0 3.206-.68 3.206-2.395 0-3.511-8.059-1.9-8.059-7.947 0-3.266 2.61-5.524 7.236-5.524a18.912 18.912 0 0 1 3.462.354l-.34 3.1a11.076 11.076 0 0 0-3.292-.517c-2.157 0-3.15.9-3.15 2.2 0 3.266 8.2 2.068 8.2 7.892-.001 3.407-2.98 5.938-7.407 5.938z"/><path data-name="Path 53" d="M31.975 54.741h-3.944l-2.043-5.987c-.284-.952-.539-1.9-.795-3.048h-.028a34.991 34.991 0 0 1-.965 3.4l-1.787 5.633h-3.746l-4.313-13.525h3.973l1.5 5.116c.369 1.333.766 2.694 1.107 4.082h.028a34.537 34.537 0 0 1 1.021-3.919l1.7-5.279h3.49l1.731 5.116c.482 1.551.851 2.748 1.135 4.082h.057c.284-1.388.6-2.585.965-3.919l1.617-5.279h3.717z"/><path data-name="Path 54" d="M40.459 39.204a2.157 2.157 0 0 1-2.241-2.1 2.262 2.262 0 1 1 2.241 2.1zm-1.816 15.539V41.215h3.632V54.74z"/><path data-name="Path 55" d="M54.59 37.732a5.719 5.719 0 0 0-1.759-.245c-1.589 0-2.3.789-2.3 2.585v1.143h3.292v2.694h-3.287v10.832h-3.6V43.91h-2.469v-2.694h2.469V40.1c0-3.647 1.759-5.443 5.618-5.443a10.783 10.783 0 0 1 2.3.218z"/><path data-name="Path 56" d="M60.378 55.012c-3.121 0-4.086-1.089-4.086-4.245v-6.858h-2.44v-2.694h2.44v-4.164l3.6-.925v5.089h3.433v2.694H59.9v5.933c0 1.742.426 2.231 1.674 2.231a5.971 5.971 0 0 0 1.617-.19l.255 2.749a14.061 14.061 0 0 1-3.068.38z"/><path data-name="Path 57" d="M80.894 55.04c-5.845 0-8.711-3.565-8.711-9.2 0-6.1 4.228-9.77 9.364-9.77 5.845 0 8.711 3.565 8.711 9.2 0 6.096-4.228 9.77-9.364 9.77zm.341-15.784c-2.894 0-5.108 2.2-5.108 6.15 0 3.919 1.646 6.423 5.079 6.423 2.894 0 5.107-2.177 5.107-6.15.001-3.894-1.645-6.423-5.078-6.423z"/><path data-name="Path 58" d="M100.7 44.345c-2.611-.49-3.916 1.116-3.916 4.871v5.524h-3.632V41.215h3.433a17.172 17.172 0 0 1-.255 2.721h.057a4.225 4.225 0 0 1 4.483-2.994z"/><path data-name="Path 59" d="M111.427 54.741a16.028 16.028 0 0 1 .17-2.258h-.057a4.746 4.746 0 0 1-4.455 2.558c-3.433 0-5.136-2.476-5.136-6.34 0-4.572 2.781-7.729 7.462-7.729a13.468 13.468 0 0 1 1.788.109v-6.2h3.6v19.866zm-.227-10.8a9.275 9.275 0 0 0-1.9-.218c-2.072 0-3.547 1.252-3.547 4.6 0 2.531.766 3.837 2.412 3.837 1.9 0 3.036-2.123 3.036-4.436z"/><path data-name="Path 60" d="M130.154 48.645h-8.711c0 2.395 1.163 3.646 3.887 3.646a11.459 11.459 0 0 0 4.086-.789l.4 2.64a15.807 15.807 0 0 1-5.108.871c-4.455 0-6.952-2.15-6.952-6.912 0-4.055 2.5-7.158 6.7-7.158 4.114 0 5.845 2.531 5.845 5.742a11.989 11.989 0 0 1-.147 1.96zm-5.9-5.144a2.817 2.817 0 0 0-2.781 2.83h5.221c.055-1.85-.91-2.83-2.442-2.83z"/><path data-name="Path 61" d="M140.88 44.345c-2.61-.49-3.916 1.116-3.916 4.871v5.524h-3.632V41.215h3.433a17.209 17.209 0 0 1-.255 2.721h.057a4.225 4.225 0 0 1 4.483-2.994z"/><path data-name="Path 62" d="M0 29.802l.271-2.484a6.964 6.964 0 0 0 2 .284c1.653 0 2.64-.757 2.64-3.312V12.91h3.254v11.215c0 3.028-1.061 5.915-6.1 5.915A9.2 9.2 0 0 1 0 29.802zm11.128-8.233h7.329c-.148-3.5-1.95-5.678-5.824-6.625l.79-2.6c5.355 1.348 8.218 4.258 8.218 10.126v1.561H11.128zm11.5 8.233l.271-2.484a6.965 6.965 0 0 0 2 .284c1.653 0 2.641-.757 2.641-3.312V12.91h3.258v11.215c0 3.028-1.061 5.915-6.1 5.915a9.207 9.207 0 0 1-2.072-.238zm11.153-.118l.2-2.555a21.6 21.6 0 0 0 3.85.4c2.567 0 4.269-.923 4.269-3.147v-.355h-1.925c-4.812 0-6.614-2.129-6.614-5.489 0-3.1 2-5.939 6.54-5.939a16.469 16.469 0 0 1 5.158.828v10.647c0 3.265-2.2 5.915-7.724 5.915a27.018 27.018 0 0 1-3.755-.302zm8.316-14.2a6.166 6.166 0 0 0-2.344-.426 2.892 2.892 0 0 0-2.937 3.194c0 2.153 1.111 3.312 3.7 3.312h1.579zM47.45 4.648a7.9 7.9 0 0 1 1.456.095 1.1 1.1 0 0 1-.444-.923c0-1.325.888-2.508 3.48-2.508a7.679 7.679 0 0 1 1.456.118l-.3 1.632a6.842 6.842 0 0 0-1.209-.118c-.79 0-1.209.331-1.209.8 0 .521.444.9 1.728.9h1.406v1.643h-6.367zm1.727 3.1h3.257v16.278h-3.257zm12.609 9.275a11.406 11.406 0 0 1 .642-3.715l3.48-.544a9.917 9.917 0 0 0-.839 3.9c0 3.336 1.506 4.9 6.12 4.9h3.356v-8.659h3.257v8.659h2.443v2.46h-9.4c-6.715.005-9.06-2.668-9.06-6.998zm5.01-7.524a1.641 1.641 0 1 1 1.629 1.609 1.619 1.619 0 0 1-1.63-1.606zm4.1 0a1.629 1.629 0 1 1 1.629 1.609 1.619 1.619 0 0 1-1.633-1.606zm8.955 12.066h1.037a10.871 10.871 0 0 1 1.505.118 4.388 4.388 0 0 1-1.135-3.194c0-3.407 2.542-5.891 6.268-5.891 3.5 0 5.75 1.751 5.75 5.513a4.69 4.69 0 0 1-1.431 3.573s1.036-.118 1.875-.118h1.308v2.46H79.847zm10.143-3.288c0-2.082-.839-3.218-2.69-3.218-1.407 0-2.789.947-2.789 3.171s.913 3.336 2.74 3.336c1.55.002 2.735-1.086 2.735-3.286zm-4.393-9.086a1.7 1.7 0 1 1 1.7 1.633 1.672 1.672 0 0 1-1.704-1.63zm9.055 12.374h4.639v-8.659h3.258v11.12h-7.9zm2.1 7.618a1.609 1.609 0 1 1 1.654-1.609 1.625 1.625 0 0 1-1.661 1.613zm4.1 0a1.609 1.609 0 1 1 1.629-1.609 1.6 1.6 0 0 1-1.639 1.613zm4.688.5l.2-2.555a21.593 21.593 0 0 0 3.85.4c2.567 0 4.269-.923 4.269-3.147v-.355h-1.938c-4.812 0-6.614-2.129-6.614-5.489 0-3.1 2-5.939 6.54-5.939a16.469 16.469 0 0 1 5.158.828v8.139h2.443v2.46h-2.443v.048c0 3.265-2.2 5.915-7.724 5.915a27.01 27.01 0 0 1-3.751-.301zm8.316-14.2a6.166 6.166 0 0 0-2.344-.426 2.892 2.892 0 0 0-2.937 3.194c0 2.153 1.111 3.312 3.7 3.312h1.579zm5.205 6.08h.79c1.6 0 2.221-.615 2.221-2.957v-4.282h3.258v4.685c0 1.774.419 2.744 1.875 2.744 1.431 0 1.826-1.017 1.826-2.721v-5.645h3.109v5.56c0 1.964.543 2.626 2.715 2.626h.864c.1-.946.173-2.106.173-2.839a28.206 28.206 0 0 0-.716-6.341l3.184-.426a28.025 28.025 0 0 1 .79 6.554 45.3 45.3 0 0 1-.37 5.512h-4.59c-2.147 0-3.455-.473-4-1.751a3.719 3.719 0 0 1-3.578 1.964c-1.8 0-3.085-.733-3.5-1.964-.444 1.136-1.456 1.751-3.282 1.751h-.765z"/></g></svg>